# xmcd
#
# Track frame offsets:
#	150
#	16535
#	34942
#	60825
#
# Disc length: 1546 seconds
#
# Revision: 0
# Processed by: cddbd v1.5.1PL2 Copyright (c) Steve Scherf et al.
# Submitted via: audiograbber 1.83.01
#
DISCID=1f060804
DTITLE=Four Star Mary - Pain
DYEAR=2001
DGENRE=Rock
TTITLE0=Pain
TTITLE1=Surrender
TTITLE2=Pain (Acoustic)
TTITLE3=Pain (Video)
EXTD=
EXTT0=
EXTT1=
EXTT2=
EXTT3=
PLAYORDER=
